<svg xmlns="http://www.w3.org/2000/svg" viewBox="0 0 600 400">
  <defs>
    <linearGradient id="g" x1="0%" y1="0%" x2="100%" y2="100%">
      <stop offset="0%" style="stop-color:#e879f9"/>
      <stop offset="100%" style="stop-color:#7c3aed"/>
    </linearGradient>
  </defs>
  <rect width="600" height="400" fill="url(#g)"/>
  <!-- Grid of abstract shapes -->
  <rect x="40" y="40" width="60" height="60" rx="12" fill="rgba(255,255,255,0.15)"/>
  <circle cx="160" cy="70" r="30" fill="rgba(255,255,255,0.2)"/>
  <rect x="200" y="40" width="60" height="60" rx="4" fill="rgba(255,255,255,0.1)" transform="rotate(45 230 70)"/>
  <circle cx="340" cy="70" r="20" fill="rgba(255,255,255,0.25)"/>
  <rect x="380" y="40" width="60" height="60" rx="12" fill="rgba(255,255,255,0.15)"/>
  <circle cx="500" cy="70" r="35" fill="rgba(255,255,255,0.1)"/>
  <rect x="540" y="40" width="40" height="40" rx="8" fill="rgba(255,255,255,0.2)"/>

  <circle cx="70" cy="180" r="40" fill="rgba(255,255,255,0.12)"/>
  <rect x="120" y="150" width="70" height="70" rx="35" fill="rgba(255,255,255,0.2)"/>
  <rect x="210" y="155" width="60" height="60" rx="4" fill="rgba(255,255,255,0.15)" transform="rotate(20 240 185)"/>
  <circle cx="330" cy="180" r="25" fill="rgba(255,255,255,0.25)"/>
  <rect x="370" y="155" width="55" height="55" rx="10" fill="rgba(255,255,255,0.18)"/>
  <circle cx="480" cy="175" r="35" fill="rgba(255,255,255,0.1)"/>

  <!-- Phone frame hint -->
  <rect x="240" y="80" width="120" height="200" rx="18" fill="rgba(0,0,0,0.25)" stroke="rgba(255,255,255,0.4)" stroke-width="2"/>
  <rect x="255" y="95" width="90" height="160" rx="10" fill="rgba(255,255,255,0.08)"/>
  <circle cx="300" cy="295" r="8" fill="rgba(255,255,255,0.4)"/>

  <rect x="40" y="300" width="80" height="70" rx="12" fill="rgba(255,255,255,0.15)"/>
  <circle cx="175" cy="335" r="35" fill="rgba(255,255,255,0.2)"/>
  <rect x="390" y="305" width="65" height="65" rx="12" fill="rgba(255,255,255,0.12)"/>
  <circle cx="500" cy="335" r="28" fill="rgba(255,255,255,0.18)"/>
  <rect x="540" y="310" width="40" height="60" rx="8" fill="rgba(255,255,255,0.1)"/>
</svg>
