<svg xmlns="http://www.w3.org/2000/svg" viewBox="0 0 600 400">
  <defs>
    <linearGradient id="g" x1="0%" y1="0%" x2="100%" y2="100%">
      <stop offset="0%" style="stop-color:#f59e0b"/>
      <stop offset="100%" style="stop-color:#b45309"/>
    </linearGradient>
  </defs>
  <rect width="600" height="400" fill="url(#g)"/>
  <!-- Waveform bars -->
  <rect x="50" y="180" width="8" height="40" rx="4" fill="rgba(255,255,255,0.4)"/>
  <rect x="66" y="160" width="8" height="80" rx="4" fill="rgba(255,255,255,0.5)"/>
  <rect x="82" y="150" width="8" height="100" rx="4" fill="rgba(255,255,255,0.65)"/>
  <rect x="98" y="170" width="8" height="60" rx="4" fill="rgba(255,255,255,0.5)"/>
  <rect x="114" y="140" width="8" height="120" rx="4" fill="rgba(255,255,255,0.75)"/>
  <rect x="130" y="155" width="8" height="90" rx="4" fill="rgba(255,255,255,0.6)"/>
  <rect x="146" y="175" width="8" height="50" rx="4" fill="rgba(255,255,255,0.45)"/>
  <rect x="162" y="145" width="8" height="110" rx="4" fill="rgba(255,255,255,0.7)"/>
  <rect x="178" y="165" width="8" height="70" rx="4" fill="rgba(255,255,255,0.55)"/>
  <rect x="194" y="135" width="8" height="130" rx="4" fill="rgba(255,255,255,0.8)"/>
  <rect x="210" y="160" width="8" height="80" rx="4" fill="rgba(255,255,255,0.6)"/>
  <rect x="226" y="175" width="8" height="50" rx="4" fill="rgba(255,255,255,0.4)"/>
  <!-- Center mic icon -->
  <rect x="275" y="130" width="50" height="80" rx="25" fill="rgba(255,255,255,0.3)" stroke="rgba(255,255,255,0.6)" stroke-width="2"/>
  <line x1="300" y1="210" x2="300" y2="240" stroke="rgba(255,255,255,0.6)" stroke-width="2"/>
  <path d="M 270 230 Q 300 260 330 230" fill="none" stroke="rgba(255,255,255,0.6)" stroke-width="2"/>
  <!-- Right waveform -->
  <rect x="342" y="175" width="8" height="50" rx="4" fill="rgba(255,255,255,0.45)"/>
  <rect x="358" y="145" width="8" height="110" rx="4" fill="rgba(255,255,255,0.7)"/>
  <rect x="374" y="160" width="8" height="80" rx="4" fill="rgba(255,255,255,0.55)"/>
  <rect x="390" y="135" width="8" height="130" rx="4" fill="rgba(255,255,255,0.8)"/>
  <rect x="406" y="155" width="8" height="90" rx="4" fill="rgba(255,255,255,0.6)"/>
  <rect x="422" y="170" width="8" height="60" rx="4" fill="rgba(255,255,255,0.5)"/>
  <rect x="438" y="140" width="8" height="120" rx="4" fill="rgba(255,255,255,0.75)"/>
  <rect x="454" y="165" width="8" height="70" rx="4" fill="rgba(255,255,255,0.5)"/>
  <rect x="470" y="150" width="8" height="100" rx="4" fill="rgba(255,255,255,0.65)"/>
  <rect x="486" y="160" width="8" height="80" rx="4" fill="rgba(255,255,255,0.5)"/>
  <rect x="502" y="180" width="8" height="40" rx="4" fill="rgba(255,255,255,0.4)"/>
  <!-- Caption strip -->
  <rect x="60" y="310" width="480" height="50" rx="10" fill="rgba(0,0,0,0.3)"/>
  <rect x="80" y="325" width="200" height="10" rx="5" fill="rgba(255,255,255,0.5)"/>
  <rect x="80" y="342" width="140" height="8" rx="4" fill="rgba(255,255,255,0.3)"/>
</svg>
